<svg width="240.111633" height="91.909424" viewBox="0 0 240.112 91.9094" fill="none" xmlns="http://www.w3.org/2000/svg" xmlns:xlink="http://www.w3.org/1999/xlink">
	<desc>
			Created with Pixso.
	</desc>
	<defs/>
	<path d="M71.4183 19.9445Q68.7933 22.5695 69.0433 23.007Q69.1676 23.1935 69.3402 23.3056Q69.8619 23.6443 70.8245 23.3039Q72.1058 22.8508 73.5745 21.4133Q75.5433 19.4758 76.3558 17.7414Q77.1683 16.007 76.7308 14.8195Q76.6344 14.5579 76.4963 14.3206Q76.0076 13.4806 74.9964 12.9445Q73.6995 12.257 71.3558 12.3351Q69.012 12.4133 66.1058 13.3195Q58.387 15.7258 45.9183 22.6476Q33.4495 29.5695 22.8558 37.3508Q19.3245 39.9445 19.1995 39.9445L19.1991 39.9444Q19.1431 39.9256 20.7308 35.0226Q22.3245 30.1008 24.6683 23.1008Q29.6058 8.31952 30.6526 4.49139Q31.6995 0.663269 30.9183 0.163269Q30.6049 -0.0295906 30.3194 0.00536823Q29.8647 0.0610428 29.4808 0.694519Q28.8558 1.72577 27.8245 5.28827Q26.5745 9.63202 22.2151 22.6008Q17.8558 35.5695 16.2933 39.5383Q15.6058 41.3508 14.5745 43.1945Q13.5433 45.0383 12.6995 46.0695Q10.387 48.882 9.52765 50.9133Q8.66827 52.9445 8.76202 55.5383Q8.79327 58.507 7.79327 60.9758Q6.41827 64.0695 4.2464 70.2414Q2.07452 76.4133 1.16827 79.8508Q0.230774 83.3508 0.0432739 86.257Q-0.144226 89.1633 0.480774 90.3508Q0.542763 90.4747 0.625042 90.5834Q0.957546 91.0223 1.6214 91.2101Q2.37221 91.4226 3.02027 91.2498Q3.087 91.232 3.15265 91.2101Q3.59044 91.0642 3.75565 90.7668Q3.85577 90.5866 3.85577 90.3508Q3.85577 90.2608 3.84317 90.1726Q3.80327 89.8933 3.63702 89.632Q3.43625 89.3165 3.15651 89.2116Q3.13146 89.2022 3.10577 89.1945Q3.07323 89.1819 3.04218 89.1663Q1.61238 88.448 3.35577 81.4133Q5.13702 74.2258 9.41827 63.6008L10.6995 60.382L13.137 62.6945Q14.4128 63.9228 15.8543 64.9086Q21.0512 68.4627 28.4026 68.8664Q37.7933 69.382 49.5433 64.7258Q51.474 63.9652 52.2409 63.4648Q52.5089 64.7148 53.2811 65.3766Q53.6262 65.6724 54.072 65.8508Q54.5696 66.0543 55.0872 66.1579Q56.7151 66.4834 58.5408 65.8195Q60.947 64.9445 65.5095 61.6945Q69.0182 59.2194 70.1477 58.2357Q69.0483 63.8496 69.7258 65.882Q69.9758 66.5383 70.3508 66.7414Q70.7258 66.9445 71.632 66.8508Q72.6008 66.757 73.6789 65.7101Q74.757 64.6633 77.4133 61.132Q79.2258 58.7883 79.8195 58.007Q82.1008 55.1008 82.6008 54.9133Q82.6053 54.9113 82.6098 54.9096Q82.8279 54.8279 83.2258 55.2258Q84.132 56.132 86.7101 55.6633Q89.2883 55.1945 89.7258 54.0383Q89.9969 53.3709 89.7739 53.0028Q89.6628 52.8193 89.4289 52.7101Q88.7258 52.382 87.2883 52.9133Q85.5695 53.5695 85.1945 53.1945Q84.882 52.8508 85.9133 50.3508Q86.632 48.6008 86.6789 48.1008Q86.6805 48.0837 86.6814 48.0665Q86.7076 47.5826 86.1945 47.0695Q85.6633 46.5695 85.4601 46.6164Q85.257 46.6633 84.757 47.3195L81.8508 51.1945Q77.4758 57.0383 75.9445 59.1008Q75.257 60.0383 74.7726 60.6476Q74.2883 61.257 73.8351 61.8039Q73.382 62.3508 73.1008 62.6476Q72.8195 62.9445 72.5695 63.0851Q72.3195 63.2258 72.2101 63.1945Q72.1008 63.1633 72.0383 62.8976Q71.9758 62.632 72.007 62.2414Q72.0383 61.8508 72.132 61.1789Q72.2258 60.507 72.3664 59.757Q72.507 59.007 72.7258 57.9133Q73.1633 55.5695 73.2414 54.5851Q73.3195 53.6008 73.007 53.257Q72.7601 53.0101 72.489 52.9799Q72.4514 52.9758 72.4133 52.9758Q72.4095 52.9761 72.4057 52.9764Q71.4242 53.0605 70.6743 55.8469Q70.6104 55.7997 70.5408 55.7726Q70.2595 55.6633 69.5095 55.9914Q68.7595 56.3195 67.6345 57.0851Q66.5095 57.8508 64.5408 59.2883Q59.4158 63.007 57.6345 63.507Q56.322 63.882 55.9158 63.8351Q55.5095 63.7883 55.0095 63.1633Q54.9708 63.1052 54.9356 63.0451Q54.4019 62.1348 54.6658 60.757Q54.9783 59.2258 55.2908 58.8976Q55.6033 58.5695 56.6345 58.5695Q57.947 58.5695 59.7595 56.6164Q61.572 54.6633 61.8533 53.1633Q61.9932 52.4635 61.8198 51.8527Q61.6447 51.2361 61.1502 50.7101Q60.7871 50.324 60.3411 50.1483Q59.5779 49.8477 58.572 50.1633Q58.2963 50.2533 58.0343 50.3732Q56.841 50.9193 55.9314 52.0851Q54.822 53.507 53.7283 55.8195Q52.2732 58.8884 52.1172 61.3862Q52.051 61.3987 51.9808 61.4133Q50.5433 61.6633 45.762 63.3508Q35.262 67.007 27.8089 66.4758Q23.2137 66.1482 19.4679 64.1933Q17.1382 62.9774 15.137 61.132Q14.2933 60.3508 13.9808 60.0851Q13.6683 59.8195 13.1995 59.1945Q12.7308 58.5695 12.6214 58.4133Q12.512 58.257 12.4495 57.5539Q12.387 56.8508 12.4651 56.5851Q12.5433 56.3195 12.8558 55.2726Q13.1683 54.2258 13.4183 53.632Q13.6683 53.0383 14.2933 51.4445Q16.637 45.5695 17.4183 44.7883Q19.5433 42.6633 28.5433 36.4445Q37.5433 30.2258 43.3245 26.882Q48.4495 23.9133 55.6683 20.4445Q62.887 16.9758 66.0433 15.9758Q69.8558 14.7258 71.9808 14.7258Q73.4495 14.7258 73.762 14.9289Q74.0745 15.132 74.0745 16.0383Q74.0745 17.2883 71.4183 19.9445ZM204.356 71.2101Q207.247 70.9445 207.622 70.7883Q208.072 70.5955 208.324 70.2558Q208.439 70.1 208.513 69.9133Q208.658 69.546 208.581 69.2325Q208.534 69.0392 208.403 68.8664Q208.326 68.7652 208.228 68.6943Q207.885 68.4482 207.278 68.5695Q207.153 68.6008 204.856 68.8508Q202.56 69.1008 199.403 69.5226Q196.247 69.9445 193.497 70.4758Q188.247 71.4758 179.919 74.757Q171.591 78.0383 167.247 81.2883Q166.341 82.007 165.481 82.6164Q164.622 83.2258 164.153 83.5383Q163.715 83.8304 163.686 83.7948Q163.685 83.7923 163.685 83.7883Q163.685 83.5695 173.091 61.2258Q176.997 52.0695 179.466 45.007Q182.591 36.0383 186.075 23.5226Q189.56 11.007 189.122 10.3195Q189.073 10.2406 189.01 10.1742Q188.676 9.81952 187.966 9.81952Q187.122 9.81952 186.028 12.6008Q185.06 15.1945 182.841 18.882Q181.935 20.2883 181.294 21.5851Q180.653 22.882 180.653 23.2883Q180.653 24.0538 181.028 24.36Q181.189 24.4914 181.419 24.5383Q181.58 24.5712 181.737 24.5555Q182.323 24.4969 182.841 23.757L182.903 23.6945Q183.347 23.0291 183.446 23.077Q183.459 23.0831 183.466 23.1008Q183.622 23.4133 181.185 31.6008Q178.216 41.5383 175.2 49.3508Q172.185 57.1633 163.435 77.6633Q159.435 86.882 158.216 89.9133Q157.903 90.7258 157.919 91.0695Q157.92 91.0977 157.924 91.1254Q157.97 91.4363 158.372 91.6945Q158.703 91.915 159.03 91.9093Q159.351 91.9036 159.669 91.6789Q160.31 91.2258 162.403 88.9133Q166.497 84.4758 172.263 80.9601Q178.028 77.4445 184.997 75.257Q190.778 73.4445 196.122 72.4601Q201.466 71.4758 204.356 71.2101ZM95.1469 48.0494Q95.2903 47.9712 95.4108 47.8508Q95.5972 47.6644 95.6909 47.4394Q95.7858 47.2117 95.7858 46.9445Q95.7858 46.6388 95.6668 46.3901Q95.579 46.2065 95.4264 46.0539Q95.2738 45.9013 95.0902 45.8135Q94.8414 45.6945 94.5358 45.6945Q94.2301 45.6945 93.9813 45.8135Q93.7977 45.9013 93.6451 46.0539Q93.4925 46.2065 93.4047 46.3901Q93.2858 46.6388 93.2858 46.9445Q93.2858 47.2502 93.4047 47.499Q93.4925 47.6825 93.6451 47.8351Q93.7977 47.9877 93.9813 48.0755Q94.2301 48.1945 94.5358 48.1945Q94.8809 48.1945 95.1469 48.0494ZM221.125 56.5765Q220.363 56.1336 217.62 59.1008Q217.245 59.507 216.932 59.8508Q214.614 62.3719 214.096 62.0446Q214.055 62.0189 214.026 61.9758Q213.588 61.3195 215.495 55.0695Q216.495 51.882 216.401 50.4445Q216.344 49.5793 215.892 49.2348Q215.592 49.007 215.12 49.007Q214.057 49.007 212.682 50.6476Q211.307 52.2883 209.245 55.9133Q204.682 64.0383 203.463 64.0383Q203.151 63.882 203.151 62.4289Q203.151 60.9758 203.495 58.4133Q203.838 55.8508 204.401 53.257Q205.182 49.4758 204.588 48.882Q204.298 48.592 204.008 48.592Q203.579 48.592 203.151 49.2258Q201.557 51.5695 200.838 59.757Q200.526 63.1008 200.838 64.5539Q201.073 65.644 201.747 66.1626Q201.971 66.3352 202.245 66.4445Q203.276 66.8508 203.604 66.8351Q203.932 66.8195 204.87 66.2883Q206.807 65.257 210.151 59.257Q210.682 58.3195 211.088 57.6945Q211.886 56.4614 212.098 56.555Q212.343 56.6631 211.807 58.5383Q210.963 61.632 211.557 63.3195Q211.812 64.0429 212.319 64.4562Q212.995 65.007 214.12 65.007Q214.838 65.007 216.635 63.5226Q217.33 62.9484 217.983 62.3297Q218.468 61.8702 218.93 61.3863Q218.846 61.5088 218.773 61.632Q218.617 61.9133 218.476 62.3508Q218.336 62.7883 218.211 63.5851Q218.186 63.7445 218.181 63.9045Q218.161 64.5445 218.461 65.1945Q218.48 65.2351 218.5 65.2751Q218.88 66.0351 219.711 66.5695Q220.366 66.9715 221.053 67.0366Q221.808 67.1081 222.601 66.7726Q224.117 66.132 225.586 64.0695Q226.492 62.7883 227.664 62.0539Q228.836 61.3195 232.242 59.8508Q234.555 58.8508 236.195 58.2883Q237.836 57.7258 238.492 57.5695Q239.148 57.4133 239.461 57.2258L239.467 57.222Q239.868 56.9711 240.039 56.3508Q240.191 55.7983 240.025 55.3679Q240.004 55.3114 239.976 55.257Q239.889 55.0832 239.749 54.9953Q239.51 54.8462 239.117 54.9445Q238.617 55.0695 236.351 55.8195Q234.086 56.5695 232.117 57.2258Q230.148 57.882 230.117 57.8508Q230.117 57.8195 230.305 57.382Q230.492 56.9445 230.789 56.1633Q231.086 55.382 231.242 54.6633Q231.586 53.5383 231.492 52.7258Q231.398 51.9133 231.226 51.6164Q231.055 51.3195 230.586 50.7883Q230.102 50.2267 229.503 50.0491Q229.136 49.9401 228.726 49.9758Q227.648 50.0695 225.961 51.2883Q224.742 52.1633 223.226 54.6633Q221.711 57.1633 221.68 58.3508Q221.68 58.8333 221.467 59.1881Q221.197 59.6375 220.586 59.882Q220.246 60.0274 219.851 60.3702Q219.9 60.313 219.948 60.257Q221.463 58.4758 221.463 57.757Q221.463 57.0383 221.276 56.7258Q221.214 56.628 221.125 56.5765ZM140.351 56.3433Q140.178 56.3379 140.002 56.4133Q139.752 56.507 138.768 57.507Q137.783 58.507 136.69 59.5851Q135.596 60.6633 134.158 61.5695Q132.721 62.4758 131.596 62.4758Q130.917 62.4758 130.34 62.2339Q128.499 61.462 127.69 58.2258Q127.283 56.5695 126.94 56.0383Q126.813 55.8422 126.639 55.7057Q126.342 55.4724 125.908 55.4133Q124.815 55.257 122.861 56.6164Q121.468 57.5864 120.368 58.819Q119.927 59.3137 119.533 59.8508Q119.033 60.5383 118.658 60.9758Q118.154 61.5918 118.102 61.5555Q118.096 61.5513 118.096 61.5383Q118.096 61.3195 119.065 56.007Q120.002 50.757 119.565 50.3195Q119.263 50.0328 118.946 50.0157Q118.608 49.9974 118.252 50.2883Q117.565 50.8508 117.19 52.257Q116.377 55.6008 115.565 60.8508Q114.752 66.1008 114.971 66.632Q115.179 67.2188 115.571 67.3928Q115.826 67.5061 116.158 67.4445Q117.877 67.132 120.721 62.632Q121.783 60.9758 123.096 59.6008Q124.408 58.2258 124.94 58.2258Q125.002 58.2258 125.346 59.4914Q125.69 60.757 126.518 62.3195Q127.346 63.882 128.502 64.4445Q128.942 64.6618 129.406 64.7997Q131.609 65.4555 134.346 64.3195Q135.19 63.9445 137.58 61.9758Q139.971 60.007 140.815 58.882Q141.377 58.0695 141.33 57.4601Q141.297 57.0251 141.072 56.7413Q140.982 56.6277 140.861 56.5383Q140.609 56.3514 140.351 56.3433ZM115.216 55.929Q114.904 55.737 114.442 55.7883Q114.005 55.8508 112.958 56.757Q111.911 57.6633 110.083 59.3039Q108.255 60.9445 106.786 62.1008Q106.149 62.5929 105.48 63.0343Q103.683 64.2187 101.645 65.0383Q98.8483 66.1633 96.3014 65.9289Q94.776 65.7885 93.8503 64.97Q93.2305 64.4218 92.8795 63.5695Q92.4108 62.4445 92.3951 61.4601Q92.3795 60.4758 92.7545 58.0695Q93.317 54.2883 93.7545 54.007Q94.1608 53.757 94.1608 52.8351Q94.1608 51.9469 93.7546 51.6824Q93.7392 51.6724 93.7233 51.6633Q93.3823 51.4433 93.0529 51.4595Q92.4465 51.4893 91.8795 52.3195Q91.0045 53.6008 90.4108 56.4758Q89.7233 59.882 90.0358 63.007Q90.1841 64.416 90.8392 65.5258Q91.5644 66.7544 92.9108 67.6164Q93.7184 68.1335 94.6006 68.4255Q96.5173 69.06 98.7858 68.632Q101.067 68.1945 103.505 67.0383Q105.942 65.882 107.723 64.6476Q109.505 63.4133 111.286 61.8508Q113.067 60.2883 113.817 59.5226Q114.567 58.757 115.192 58.0695Q115.837 57.2958 115.715 56.6711Q115.69 56.5388 115.63 56.4133Q115.474 56.0878 115.216 55.929ZM56.8526 55.7721Q56.574 55.4625 57.6033 53.9758Q58.1658 53.0695 58.6345 52.8508Q58.8595 52.7383 58.9945 52.8058Q59.197 52.907 59.197 53.4133Q59.197 54.0695 58.0095 55.1945Q57.2283 55.9133 56.9158 55.8195Q56.8786 55.8009 56.8526 55.7721ZM228.461 53.757Q228.461 54.8508 226.992 57.382Q225.867 59.382 224.898 59.8508Q224.544 60.028 224.344 59.9198Q224.086 59.7799 224.086 59.1633Q224.086 58.257 225.398 56.007Q226.711 53.757 227.523 53.2258Q228.148 52.8508 228.305 52.9445Q228.461 53.0383 228.461 53.757ZM223.367 62.7258Q223.242 62.9445 222.617 63.6008Q221.586 64.757 221.117 64.757Q221.029 64.757 220.96 64.72Q220.811 64.6392 220.758 64.382Q220.68 64.007 220.82 63.4445Q220.961 62.882 221.242 62.3195Q221.555 61.7258 221.851 61.6476Q222.148 61.5695 222.742 61.9133Q223.305 62.1945 223.398 62.3508Q223.418 62.3832 223.428 62.4183Q223.466 62.5524 223.367 62.7258Z" fill="#AAAAAA" fill-opacity="1.000000" fill-rule="evenodd"/>
</svg>
